HIERARCHY
ROOT Hips
{
	OFFSET 0.000000 0.000000 0.000000
	CHANNELS 6 Xposition Yposition Zposition Zrotation Yrotation Xrotation 
	JOINT LHipJoint
	{
		OFFSET 0.000000 0.000000 0.000000
		CHANNELS 3 Zrotation Yrotation Xrotation
		JOINT LeftUpLeg
		{
			OFFSET 1.363060 -1.794630 0.839290
			CHANNELS 3 Zrotation Yrotation Xrotation
			JOINT LeftLeg
			{
				OFFSET 2.448110 -6.726130 0.000000
				CHANNELS 3 Zrotation Yrotation Xrotation
				JOINT LeftFoot
				{
					OFFSET 2.562200 -7.039590 0.000000
					CHANNELS 3 Zrotation Yrotation Xrotation
					JOINT LeftToeBase
					{
						OFFSET 0.157640 -0.433110 2.322550
						CHANNELS 3 Zrotation Yrotation Xrotation
						End Site
						{
							OFFSET 0.000000 0.000000 0.000000
						}
					}
				}
			}
		}
	}
	JOINT RHipJoint
	{
		OFFSET 0.000000 0.000000 0.000000
		CHANNELS 3 Zrotation Yrotation Xrotation
		JOINT RightUpLeg
		{
			OFFSET -1.305520 -1.794630 0.839290
			CHANNELS 3 Zrotation Yrotation Xrotation
			JOINT RightLeg
			{
				OFFSET -2.542530 -6.985550 0.000000
				CHANNELS 3 Zrotation Yrotation Xrotation
				JOINT RightFoot
				{
					OFFSET -2.568260 -7.056230 0.000000
					CHANNELS 3 Zrotation Yrotation Xrotation
					JOINT RightToeBase
					{
						OFFSET -0.164730 -0.452590 2.363150
						CHANNELS 3 Zrotation Yrotation Xrotation
						End Site
						{
							OFFSET 0.000000 0.000000 0.000000
						}
					}
				}
			}
		}
	}
	JOINT LowerBack
	{
		OFFSET 0.000000 0.000000 0.000000
		CHANNELS 3 Zrotation Yrotation Xrotation
		JOINT Spine
		{
			OFFSET 0.028270 2.035590 -0.193380
			CHANNELS 3 Zrotation Yrotation Xrotation
			JOINT Spine1
			{
				OFFSET 0.056720 2.048850 -0.042750
				CHANNELS 3 Zrotation Yrotation Xrotation
				JOINT Neck
				{
					OFFSET 0.000000 0.000000 0.000000
					CHANNELS 3 Zrotation Yrotation Xrotation
					JOINT Neck1
					{
						OFFSET -0.054170 1.746240 0.172020
						CHANNELS 3 Zrotation Yrotation Xrotation
						JOINT Head
						{
							OFFSET 0.104070 1.761360 -0.123970
							CHANNELS 3 Zrotation Yrotation Xrotation
							End Site
							{
								OFFSET 0.000000 0.000000 0.000000
							}
						}
					}
				}
				JOINT LeftShoulder
				{
					OFFSET 0.000000 0.000000 0.000000
					CHANNELS 3 Zrotation Yrotation Xrotation
					JOINT LeftArm
					{
						OFFSET 3.362410 1.200890 -0.311210
						CHANNELS 3 Zrotation Yrotation Xrotation
						JOINT LeftForeArm
						{
							OFFSET 4.983000 -0.000000 -0.000000
							CHANNELS 3 Zrotation Yrotation Xrotation
							JOINT LeftHand
							{
								OFFSET 3.483560 -0.000000 -0.000000
								CHANNELS 3 Zrotation Yrotation Xrotation
								JOINT LeftFingerBase
								{
									OFFSET 0.000000 0.000000 0.000000
									CHANNELS 3 Zrotation Yrotation Xrotation
									JOINT LeftHandIndex1
									{
										OFFSET 0.715260 -0.000000 -0.000000
										CHANNELS 3 Zrotation Yrotation Xrotation
										End Site
										{
											OFFSET 0.000000 0.000000 0.000000
										}
									}
								}
								JOINT LThumb
								{
									OFFSET 0.000000 0.000000 0.000000
									CHANNELS 3 Zrotation Yrotation Xrotation
									End Site
									{
										OFFSET 0.000000 0.000000 0.000000
									}
								}
							}
						}
					}
				}
				JOINT RightShoulder
				{
					OFFSET 0.000000 0.000000 0.000000
					CHANNELS 3 Zrotation Yrotation Xrotation
					JOINT RightArm
					{
						OFFSET -3.136600 1.374050 -0.404650
						CHANNELS 3 Zrotation Yrotation Xrotation
						JOINT RightForeArm
						{
							OFFSET -5.241900 -0.000000 -0.000000
							CHANNELS 3 Zrotation Yrotation Xrotation
							JOINT RightHand
							{
								OFFSET -3.444170 -0.000000 -0.000000
								CHANNELS 3 Zrotation Yrotation Xrotation
								JOINT RightFingerBase
								{
									OFFSET 0.000000 0.000000 0.000000
									CHANNELS 3 Zrotation Yrotation Xrotation
									JOINT RightHandIndex1
									{
										OFFSET -0.622530 -0.000000 -0.000000
										CHANNELS 3 Zrotation Yrotation Xrotation
										End Site
										{
											OFFSET 0.000000 0.000000 0.000000
										}
									}
								}
								JOINT RThumb
								{
									OFFSET 0.000000 0.000000 0.000000
									CHANNELS 3 Zrotation Yrotation Xrotation
									End Site
									{
										OFFSET 0.000000 0.000000 0.000000
									}
								}
							}
						}
					}
				}
			}
		}
	}
}
MOTION
Frames: 6
Frame Time: 0.008333
2.223818 17.248433 1.214683 21.539717 -86.976844 -11.386459 -9.569744 1.599378 2.851176 -13.438211 -5.409724 -13.915329 -2.098441 -0.587709 10.930332 1.706616 9.243603 -8.247744 -0.035100 -0.000000 -32.708800 10.984551 0.611714 0.212362 -0.469545 -3.757184 -37.608274 -1.387557 -3.566654 58.985192 -1.420697 -2.801651 19.710408 -0.780201 0.000000 -83.059200 -2.015604 -2.666992 -3.207832 -1.140289 -2.679298 -3.467041 -6.855331 -2.780408 0.524117 11.453963 -9.104562 -6.992538 -3.579306 -0.288232 0.202143 0.000000 0.000000 0.000000 -1.243795 4.014639 1.285789 -70.723624 5.730036 9.404044 -3.147909 -26.755679 0.005733 3.750242 -3.620462 -0.120679 -0.079652 0.005108 -0.000000 0.000000 0.000000 0.000000 0.000000 0.000000 0.000000 17.390420 -6.862336 0.751743 70.586126 4.349933 -3.538593 3.327301 23.066433 0.017599 -1.114779 10.991359 -0.116754 0.095573 -0.109338 -0.000000 0.000000 0.000000 0.000000 0.000000 0.000000 0.000000 
2.266384 17.245706 1.249226 15.807958 -86.827565 -5.836788 -9.683340 1.472789 2.653805 -13.214519 -5.194642 -13.900827 -2.066184 -0.551428 11.316798 1.674027 9.031604 -8.401739 -0.074400 0.000000 -32.774200 10.923640 0.900724 0.081772 -0.491227 -3.927711 -40.276803 -1.552743 -3.768783 62.775493 -1.466369 -1.117112 23.649766 0.068100 0.000000 -81.856699 -1.781378 -2.758215 -2.771466 -1.092884 -2.776420 -3.398172 -6.883197 -2.874317 0.459003 11.490238 -8.998684 -6.984448 -3.591062 -0.288279 0.199051 0.000000 0.000000 0.000000 -1.202439 3.752112 1.347929 -70.722585 5.572256 9.755935 -3.132006 -27.001411 0.005544 3.693257 -3.610606 -0.118673 -0.079431 0.007860 -0.000000 0.000000 0.000000 0.000000 0.000000 0.000000 0.000000 17.440897 -6.816160 0.794816 70.528621 4.383105 -3.604379 3.317385 23.096921 0.017361 -1.096077 10.975860 -0.114667 0.094448 -0.109832 -0.000000 0.000000 0.000000 0.000000 0.000000 0.000000 0.000000 
2.310076 17.242633 1.282479 9.912899 -86.637755 -0.143088 -9.786868 1.346102 2.446136 -12.957016 -4.951751 -13.866882 -2.034421 -0.514457 11.701763 1.636522 8.788232 -8.558424 -0.113100 -0.000000 -32.868300 10.854230 1.195317 -0.064549 -0.460467 -4.128492 -42.936343 -1.681945 -3.981076 66.411520 -1.501190 0.736300 27.131063 1.156000 0.000000 -80.257999 -1.499962 -2.857403 -2.306891 -1.039366 -2.883054 -3.325688 -6.919351 -2.976972 0.388661 11.528265 -8.882512 -6.974637 -3.609917 -0.288844 0.195928 0.000000 0.000000 0.000000 -1.188491 3.479516 1.415071 -70.662454 5.400220 10.189696 -3.114052 -27.269439 0.005367 3.641513 -3.610410 -0.117069 -0.079069 0.010553 -0.000000 0.000000 0.000000 0.000000 0.000000 0.000000 0.000000 17.520971 -6.764688 0.837842 70.458621 4.411169 -3.639131 3.304806 23.148561 0.017106 -1.101701 10.980750 -0.115179 0.093300 -0.110340 -0.000000 0.000000 0.000000 0.000000 0.000000 0.000000 0.000000 
2.354192 17.239632 1.314428 4.058700 -86.408837 5.498583 -9.879451 1.223647 2.237930 -12.663351 -4.709063 -13.823131 -2.001552 -0.475720 12.086117 1.598362 8.537168 -8.717224 -0.150200 0.000000 -32.971700 10.780676 1.493346 -0.228147 -0.368333 -4.363339 -45.595277 -1.799129 -4.210865 69.900820 -1.516691 2.634458 30.023992 2.384101 -0.000000 -78.674499 -1.171166 -2.958916 -1.826181 -0.980149 -2.993768 -3.252321 -6.963229 -3.083143 0.313176 11.565890 -8.756599 -6.960167 -3.635567 -0.289955 0.193774 0.000000 0.000000 0.000000 -1.203530 3.192068 1.485567 -70.545221 5.216902 10.686791 -3.094401 -27.545666 0.005214 3.601797 -3.625429 -0.116363 -0.078581 0.013132 -0.000000 0.000000 0.000000 0.000000 0.000000 0.000000 0.000000 17.625837 -6.707441 0.880985 70.380184 4.423749 -3.655814 3.290084 23.215792 0.016837 -1.135607 11.008638 -0.118692 0.092172 -0.110855 -0.000000 0.000000 0.000000 0.000000 0.000000 0.000000 0.000000 
2.398261 17.237103 1.345183 -1.575843 -86.142994 10.914525 -9.964383 1.107747 2.037564 -12.332150 -4.490612 -13.779561 -1.965886 -0.434115 12.471865 1.563071 8.299102 -8.877447 -0.185000 0.000000 -33.065700 10.702336 1.794925 -0.408311 -0.208451 -4.630017 -48.260718 -1.927197 -4.459038 73.248964 -1.510932 4.441196 32.257825 3.625900 0.000000 -77.466500 -0.797801 -3.057716 -1.341370 -0.915554 -3.103641 -3.179946 -7.013099 -3.188142 0.235529 11.600955 -8.627794 -6.941569 -3.666876 -0.291533 0.192640 0.000000 0.000000 0.000000 -1.247612 2.896098 1.557172 -70.377556 5.010610 11.234329 -3.073808 -27.803587 0.005087 3.581844 -3.659579 -0.116858 -0.078032 0.015582 -0.000000 0.000000 0.000000 0.000000 0.000000 0.000000 0.000000 17.749317 -6.650481 0.923354 70.296180 4.420599 -3.657528 3.274090 23.286278 0.016560 -1.202722 11.060457 -0.125705 0.091137 -0.111346 -0.000000 0.000000 0.000000 0.000000 0.000000 0.000000 0.000000 
2.441525 17.235495 1.374756 -6.765433 -85.842075 15.889582 -10.045236 0.998826 1.854203 -11.969152 -4.330596 -13.737457 -1.925349 -0.390106 12.851349 1.535317 8.105008 -9.033222 -0.216700 0.000000 -33.134500 10.615689 2.100332 -0.601616 0.013814 -4.924007 -50.940449 -2.083408 -4.722890 76.458755 -1.486046 6.036068 33.805969 4.757000 0.000001 -76.812700 -0.391397 -3.150207 -0.866432 -0.847305 -3.208766 -3.111818 -7.067670 -3.288558 0.153627 11.630827 -8.490859 -6.912698 -3.703198 -0.293623 0.194417 0.000000 0.000000 0.000000 -1.318027 2.575248 1.629167 -70.169633 4.797270 11.795405 -3.052925 -28.031699 0.004987 3.584551 -3.711619 -0.118754 -0.077424 0.017844 -0.000000 0.000000 0.000000 0.000000 0.000000 0.000000 0.000000 17.883459 -6.588306 0.965832 70.214105 4.383263 -3.672452 3.257522 23.354614 0.016273 -1.295379 11.132032 -0.135515 0.090162 -0.111784 -0.000000 0.000000 0.000000 0.000000 0.000000 0.000000 0.000000 
